#!OML:ASF H:\Terrain\Patient Classification 1\PLAYGROUND\JustinFriday\JustinFriday.ASF
:FULLY-SPECIFIED
:DEGREES
1958
root -14.3822 28.6594 -3.34255 351.713 -6.05047 2.44405
lowerback 39.948 1.19837 1.59601
upperback 9.66663 2.08828 0.454836
thorax -8.52268 0.935893 -1.18244
lowerneck 21.7312 -8.03992 -15.6284
upperneck 9.78365 -13.7277 5.34918
head 1.1314 -7.32997 4.61367
rclavicle -8.34896e-015 7.95139e-015
rhumerus 117.703 -46.1859 -127.328
rradius 116.561
rwrist -17.7159
rhand 4.45669 -18.0505
rfingers 7.12502
rthumb 29.8516 -45.6646
lclavicle -8.34896e-015 7.95139e-015
lhumerus 85.4905 56.8136 96.4351
lradius 138.134
lwrist 2.8622
lhand -18.9618 8.868
lfingers 7.12502
lthumb 7.34198 38.7206
rfemur -42.8905 -4.47313 3.45249
rtibia 88.3641
rfoot 16.5274 -2.96426
rtoes 14.7943
lfemur -40.5285 6.64948 -5.72718
ltibia 73.4859
lfoot 17.7845 -2.64399
ltoes 8.90172
1959
root -14.4448 28.5669 -3.45091 352.26 -5.43132 0.0374074
lowerback 41.0507 0.641113 3.22024
upperback 9.07456 2.1962 1.21226
thorax -9.49746 0.936874 -1.28188
lowerneck 21.7017 -7.90921 -15.9748
upperneck 9.83868 -13.6444 5.75394
head 1.19107 -7.3126 4.78396
rclavicle -3.97569e-015 -7.95139e-016
rhumerus 116.538 -46.2745 -126.479
rradius 117.002
rwrist -18.8228
rhand 1.28619 -15.8557
rfingers 7.12502
rthumb 26.8217 -43.9735
lclavicle -3.97569e-015 -7.95139e-016
lhumerus 85.2275 56.7097 96.2342
lradius 138.197
lwrist 2.78463
lhand -19.2195 8.62842
lfingers 7.12502
lthumb 7.09332 38.4896
rfemur -44.2753 -4.36418 6.7336
rtibia 88.2744
rfoot 16.6029 -5.52981
rtoes 20.0676
lfemur -42.5777 6.99383 -2.83033
ltibia 73.498
lfoot 19.4413 -3.88014
ltoes 9.52354
1960
root -14.3978 28.655 -3.3445 351.298 -4.87087 2.22822
lowerback 40.2857 0.578178 2.09409
upperback 9.71746 1.54761 0.49985
thorax -8.57177 0.687378 -1.17818
lowerneck 21.5041 -7.84728 -16.1517
upperneck 9.92479 -13.5854 6.0249
head 1.26504 -7.29712 4.8804
rclavicle 2.0276e-014 1.27222e-014
rhumerus 117.036 -46.6171 -126.94
rradius 116.631
rwrist -17.3483
rhand 4.10309 -16.9734
rfingers 7.12502
rthumb 29.5141 -44.6475
lclavicle 2.0276e-014 1.27222e-014
lhumerus 85.2217 56.6132 96.2253
lradius 138.129
lwrist 2.79978
lhand -19.3429 8.38986
lfingers 7.12502
lthumb 6.9742 38.255
rfemur -41.9299 -5.31816 3.65909
rtibia 87.3764
rfoot 15.4833 -3.94848
rtoes 16.9591
lfemur -40.5976 5.72521 -5.85203
ltibia 72.8909
lfoot 17.9586 -3.55571
ltoes 8.21108
1961
root -14.3844 28.6789 -3.31764 350.954 -4.70502 2.51953
lowerback 39.8125 0.519193 2.01587
upperback 10.1765 1.4226 0.466511
thorax -7.91413 0.644266 -1.1127
lowerneck 21.1723 -7.84514 -16.2164
upperneck 9.79263 -13.5572 6.22449
head 1.28112 -7.28196 4.93721
rclavicle 2.26615e-014 3.97569e-015
rhumerus 117.312 -46.0685 -127.137
rradius 117.073
rwrist -16.9129
rhand 5.38339 -17.7005
rfingers 7.12502
rthumb 30.7356 -45.152
lclavicle 2.26615e-014 3.97569e-015
lhumerus 85.0025 56.1412 96.1072
lradius 137.939
lwrist 2.13433
lhand -18.8915 8.20032
lfingers 7.12502
lthumb 7.40984 38.0506
rfemur -41.2461 -5.54984 3.24568
rtibia 86.6891
rfoot 15.3063 -3.47708
rtoes 13.065
lfemur -39.9941 5.42217 -6.42515
ltibia 72.3426
lfoot 17.6633 -3.27116
ltoes 7.61672
1962
root -14.4127 28.6005 -3.40381 351.362 -5.47377 1.48162
lowerback 40.0933 0.858689 2.28176
upperback 10.0807 1.98944 0.908487
thorax -8.10013 0.888932 -1.00882
lowerneck 20.8692 -7.82422 -16.2255
upperneck 9.60432 -13.4974 6.42081
head 1.26836 -7.24801 4.98828
rclavicle -1.51076e-014 -2.38542e-014
rhumerus 117.091 -45.9932 -126.714
rradius 117.129
rwrist -17.4307
rhand 3.77556 -17.3222
rfingers 7.12502
rthumb 29.2014 -45.0511
lclavicle -1.51076e-014 -2.38542e-014
lhumerus 84.2262 55.4 95.4619
lradius 137.881
lwrist 1.2185
lhand -18.5589 8.06916
lfingers 7.12502
lthumb 7.73091 37.9078
rfemur -43.0473 -4.518 5.11985
rtibia 86.4638
rfoot 16.7271 -4.44913
rtoes 15.5491
lfemur -41.1352 6.62674 -4.91117
ltibia 72.0018
lfoot 18.716 -3.85798
ltoes 4.86603
1963
root -14.3783 28.6662 -3.33912 351.081 -5.0155 2.72734
lowerback 39.129 0.743333 1.71845
upperback 10.4926 1.56319 0.493447
thorax -7.34987 0.717076 -0.974136
lowerneck 20.6796 -7.82202 -15.8098
upperneck 9.60404 -13.3731 6.06137
head 1.23 -7.16354 4.80936
rclavicle 2.90226e-014 -1.90833e-014
rhumerus 116.544 -46.0202 -126.197
rradius 117.291
rwrist -18.0308
rhand 2.13813 -16.8739
rfingers 7.12502
rthumb 27.6367 -44.864
lclavicle 2.90226e-014 -1.90833e-014
lhumerus 84.2048 55.2534 95.3599
lradius 137.771
lwrist 1.77235
lhand -18.6879 7.74566
lfingers 7.12502
lthumb 7.60644 37.5889
rfemur -41.8325 -5.19909 3.38142
rtibia 85.5596
rfoot 18.4562 -2.91092
rtoes 20.3743
lfemur -40.2722 5.78663 -6.82263
ltibia 71.2004
lfoot 18.0838 -3.90654
ltoes 3.07681
1964
root -14.3551 28.6847 -3.32656 350.69 -4.46088 4.10259
lowerback 39.075 0.721098 0.834192
upperback 10.6028 1.16734 0.108294
thorax -7.22932 0.541537 -0.768919
lowerneck 20.6492 -7.8319 -15.1963
upperneck 9.56201 -13.2377 5.41048
head 1.12706 -7.06139 4.52221
rclavicle -2.14687e-014 -8.74653e-015
rhumerus 116.181 -46.9119 -125.667
rradius 116.541
rwrist -18.3725
rhand 0.833534 -16.1024
rfingers 7.12502
rthumb 26.3885 -44.286
lclavicle -2.14687e-014 -8.74653e-015
lhumerus 84.7571 55.6969 95.8672
lradius 137.543
lwrist 2.97766
lhand -18.7284 7.2885
lfingers 7.12502
lthumb 7.56736 37.1331
rfemur -41.1126 -5.80859 1.54987
rtibia 84.9255
rfoot 17.57 -1.79705
rtoes 16.3718
lfemur -39.7806 5.01125 -8.81219
ltibia 70.4605
lfoot 17.9255 -3.50924
ltoes 5.37634
1965
root -14.3412 28.6768 -3.31642 350.162 -3.98117 4.92375
lowerback 39.2525 0.637426 0.337528
upperback 10.6087 0.857721 -0.142301
thorax -7.28746 0.401938 -0.658469
lowerneck 21.375 -7.67172 -15.022
upperneck 9.21694 -13.0928 5.43542
head 0.897129 -6.98215 4.55056
rclavicle 1.35174e-014 -1.03368e-014
rhumerus 115.334 -47.1303 -125.004
rradius 116.419
rwrist -17.5453
rhand 1.28242 -15.8145
rfingers 7.12502
rthumb 26.8181 -43.9329
lclavicle 1.35174e-014 -1.03368e-014
lhumerus 84.3518 56.1683 95.7596
lradius 137.63
lwrist 3.6325
lhand -18.1811 7.35175
lfingers 7.12502
lthumb 8.09556 37.1767
rfemur -40.4566 -6.30447 0.379475
rtibia 84.2631
rfoot 17.3682 -0.764737
rtoes 13.2512
lfemur -39.2384 4.49069 -10.0595
ltibia 69.6815
lfoot 17.6691 -3.38034
ltoes 2.0301
1966
root -14.341 28.6652 -3.31382 349.847 -3.80148 5.55224
lowerback 39.2277 0.727205 -0.219777
upperback 10.5934 0.743664 -0.292391
thorax -7.30144 0.349834 -0.483956
lowerneck 22.1081 -7.45246 -15.1835
upperneck 8.90827 -12.9529 5.84786
head 0.722675 -6.92764 4.74452
rclavicle 3.97569e-015 -7.15625e-015
rhumerus 113.649 -46.5542 -123.763
rradius 116.806
rwrist -15.5867
rhand 2.55494 -15.6201
rfingers 7.12502
rthumb 28.0352 -43.5457
lclavicle 3.97569e-015 -7.15625e-015
lhumerus 83.3034 56.2091 95.1241
lradius 137.88
lwrist 3.90566
lhand -17.9643 7.28938
lfingers 7.12502
lthumb 8.30474 37.1061
rfemur -40.3297 -6.47245 -0.350868
rtibia 83.734
rfoot 17.2476 0.476633
rtoes 11.563
lfemur -38.9534 4.29778 -10.8472
ltibia 69.0042
lfoot 17.5417 -2.95818
ltoes 2.28779
1967
root -14.3393 28.6636 -3.32008 349.687 -3.7728 6.15704
lowerback 39.1444 0.887693 -0.770568
upperback 10.7873 0.727477 -0.357168
thorax -7.06295 0.340748 -0.258176
lowerneck 21.6459 -7.41119 -15.3592
upperneck 8.90752 -12.8827 6.00824
head 0.796581 -6.89801 4.79537
rclavicle 2.78299e-015 2.22639e-014
rhumerus 113.945 -46.5951 -123.791
rradius 116.885
rwrist -15.7749
rhand 2.48829 -15.9344
rfingers 7.12502
rthumb 27.9715 -43.8704
lclavicle 2.78299e-015 2.22639e-014
lhumerus 82.9675 55.8956 95.1076
lradius 138.005
lwrist 3.68554
lhand -18.2896 7.02472
lfingers 7.12502
lthumb 7.99082 36.8537
rfemur -40.3946 -6.50824 -0.938032
rtibia 83.1326
rfoot 16.9961 1.39243
rtoes 9.99436
lfemur -38.8129 4.18443 -11.5815
ltibia 68.397
lfoot 17.5976 -1.96085
ltoes 4.89181
1968
root -14.3426 28.6522 -3.3313 349.555 -3.79965 5.79439
lowerback 39.212 0.817869 -0.441837
upperback 10.9364 0.78245 -0.181886
thorax -6.91911 0.364294 -0.2637
lowerneck 21.186 -7.34999 -15.4024
upperneck 8.89826 -12.7528 5.97446
head 0.842054 -6.82924 4.76745
rclavicle 1.07344e-014 -1.11319e-014
rhumerus 113.802 -46.2945 -123.422
rradius 117.41
rwrist -16.6402
rhand 1.50689 -16.5481
rfingers 7.12502
rthumb 27.0329 -44.6334
lclavicle 1.07344e-014 -1.11319e-014
lhumerus 83.029 55.7275 95.3601
lradius 137.99
lwrist 3.3252
lhand -18.3023 7.25896
lfingers 7.12502
lthumb 7.97858 37.0884
rfemur -40.3722 -6.32954 -0.333171
rtibia 82.5023
rfoot 16.9176 0.643755
rtoes 10.0561
lfemur -38.8531 4.26143 -11.2322
ltibia 68.0011
lfoot 17.6041 -1.83876
ltoes 4.43816
1969
root -14.3607 28.6336 -3.34565 349.656 -4.19698 4.15984
lowerback 39.1077 0.619606 0.859306
upperback 10.9648 1.06856 0.274757
thorax -6.84262 0.496019 -0.564068
lowerneck 21.1097 -7.20034 -15.1435
upperneck 8.81501 -12.4942 5.8212
head 0.772991 -6.68741 4.68013
rclavicle 5.56597e-015 4.77083e-015
rhumerus 113.736 -45.8651 -123.224
rradius 117.702
rwrist -16.495
rhand 2.07074 -16.9419
rfingers 7.12502
rthumb 27.5722 -44.9423
lclavicle 5.56597e-015 4.77083e-015
lhumerus 82.5707 55.5826 95.006
lradius 137.853
lwrist 2.56463
lhand -18.7515 7.16581
lfingers 7.12502
lthumb 7.54497 37.0112
rfemur -40.618 -5.59443 1.95034
rtibia 81.821
rfoot 16.8896 -0.703667
rtoes 9.7224
lfemur -39.2452 4.79302 -9.28846
ltibia 67.6479
lfoot 17.8038 -2.62938
ltoes 2.87962
1970
root -14.3983 28.6144 -3.36964 350.067 -5.18113 1.579
lowerback 38.902 0.532248 2.70589
upperback 10.9673 1.70506 0.9846
thorax -6.73001 0.78904 -1.01039
lowerneck 20.6213 -7.07838 -15.0255
upperneck 9.14862 -12.2527 5.86797
head 0.909446 -6.57158 4.64556
rclavicle -3.97569e-015 -1.19271e-014
rhumerus 113.804 -45.7919 -123.125
rradius 117.567
rwrist -15.8292
rhand 2.67376 -16.7519
rfingers 7.12502
rthumb 28.1488 -44.6589
lclavicle -3.97569e-015 -1.19271e-014
lhumerus 82.1724 55.3154 94.7444
lradius 137.817
lwrist 1.84679
lhand -19.2041 6.81573
lfingers 7.12502
lthumb 7.10818 36.6764
rfemur -41.3439 -4.00184 5.61741
rtibia 81.098
rfoot 16.9944 -2.32393
rtoes 11.3527
lfemur -39.926 6.00501 -6.01193
ltibia 67.339
lfoot 18.383 -3.50028
ltoes 3.26308
